<?xml version="1.0" encoding="UTF-8"?>
<svg width="245px" height="67px" viewBox="0 0 245 67" version="1.1" xmlns="http://www.w3.org/2000/svg" xmlns:xlink="http://www.w3.org/1999/xlink">
    <!-- Generator: Sketch 42 (36781) - http://www.bohemiancoding.com/sketch -->
    <title>logo+tagline</title>
    <desc>Created with Sketch.</desc>
    <defs>
        <path d="M0.74,7.635 C0.74,3.961 3.689,0.973 7.314,0.973 C10.939,0.973 13.887,3.961 13.887,7.635 C13.887,11.196 10.793,14.588 8.197,16.808 L7.35,17.533 L6.501,16.807 C3.873,14.557 0.74,11.14 0.74,7.635 Z M3.369,7.635 C3.369,9.36 4.808,11.651 7.35,14.014 C9.847,11.685 11.258,9.395 11.258,7.635 C11.258,5.431 9.488,3.638 7.314,3.638 C5.139,3.638 3.369,5.431 3.369,7.635 Z" id="path-1"></path>
    </defs>
    <g id="Page-1" stroke="none" stroke-width="1" fill="none" fill-rule="evenodd">
        <g id="Home-v1" transform="translate(-140.000000, -82.000000)">
            <g id="Group-9" transform="translate(0.000000, 1.000000)">
                <g id="logo+tagline" transform="translate(140.000000, 82.000000)">
                    <path d="M4.494,62 L3.486,62 L3.486,52.984 L0.168,52.984 L0.168,52.088 L7.812,52.088 L7.812,52.984 L4.494,52.984 L4.494,62 Z M9.24,56.89 C9.24,56.7126658 9.23533338,56.4840014 9.226,56.204 C9.21666662,55.9239986 9.20266676,55.6720011 9.184,55.448 L10.094,55.448 C10.1126668,55.6253342 10.1266666,55.8213323 10.136,56.036 C10.1453334,56.2506677 10.15,56.4279993 10.15,56.568 L10.178,56.568 C10.3646676,56.1853314 10.6446648,55.8750012 11.018,55.637 C11.3913352,55.3989988 11.811331,55.28 12.278,55.28 C12.3993339,55.28 12.5089995,55.2846666 12.607,55.294 C12.7050005,55.3033334 12.8053328,55.3219999 12.908,55.35 L12.782,56.246 C12.7259997,56.2273332 12.6326673,56.2086668 12.502,56.19 C12.3713327,56.1713332 12.2406673,56.162 12.11,56.162 C11.8579987,56.162 11.6153345,56.2086662 11.382,56.302 C11.1486655,56.3953338 10.9456675,56.5423323 10.773,56.743 C10.6003325,56.9436677 10.4603339,57.2003318 10.353,57.513 C10.2456661,57.8256682 10.192,58.2013311 10.192,58.64 L10.192,62 L9.24,62 L9.24,56.89 Z M19.04,62 C19.0213332,61.8226658 19.0073334,61.6266677 18.998,61.412 C18.9886666,61.1973323 18.984,61.0200007 18.984,60.88 L18.956,60.88 C18.7693324,61.2626686 18.4660021,61.5729988 18.046,61.811 C17.6259979,62.0490012 17.182669,62.168 16.716,62.168 C15.8853292,62.168 15.2623354,61.9206691 14.847,61.426 C14.4316646,60.9313309 14.224,60.2780041 14.224,59.466 L14.224,55.448 L15.176,55.448 L15.176,59.074 C15.176,59.4193351 15.2039997,59.7319986 15.26,60.012 C15.3160003,60.2920014 15.411666,60.5323323 15.547,60.733 C15.682334,60.9336677 15.8643322,61.0899994 16.093,61.202 C16.3216678,61.3140006 16.6086649,61.37 16.954,61.37 C17.2060013,61.37 17.4509988,61.3186672 17.689,61.216 C17.9270012,61.1133328 18.1393324,60.9570011 18.326,60.747 C18.5126676,60.5369989 18.6619994,60.2710016 18.774,59.949 C18.8860006,59.6269984 18.942,59.2466689 18.942,58.808 L18.942,55.448 L19.894,55.448 L19.894,60.558 C19.894,60.7353342 19.8986666,60.9639986 19.908,61.244 C19.9173334,61.5240014 19.9313332,61.7759989 19.95,62 L19.04,62 Z M25.9,57.002 C25.7599993,56.731332 25.5476681,56.5096675 25.263,56.337 C24.9783319,56.1643325 24.6540018,56.078 24.29,56.078 C24.1219992,56.078 23.9540008,56.0966665 23.786,56.134 C23.6179992,56.1713335 23.4686673,56.2319996 23.338,56.316 C23.2073327,56.4000004 23.1023337,56.5073327 23.023,56.638 C22.9436663,56.7686673 22.904,56.9226658 22.904,57.1 C22.904,57.4080015 23.0299987,57.6436658 23.282,57.807 C23.5340013,57.9703341 23.930664,58.1079994 24.472,58.22 C25.2466705,58.3786675 25.8183315,58.6096652 26.187,58.913 C26.5556685,59.2163349 26.74,59.6246641 26.74,60.138 C26.74,60.5113352 26.6676674,60.826332 26.523,61.083 C26.3783326,61.339668 26.1893345,61.5496658 25.956,61.713 C25.7226655,61.8763341 25.4590015,61.9929997 25.165,62.063 C24.8709985,62.1330004 24.5746682,62.168 24.276,62.168 C23.7813309,62.168 23.300669,62.0653344 22.834,61.86 C22.367331,61.6546656 21.9846682,61.3326689 21.686,60.894 L22.442,60.334 C22.6100008,60.6233348 22.8573317,60.865999 23.184,61.062 C23.5106683,61.258001 23.869998,61.356 24.262,61.356 C24.4673344,61.356 24.6633324,61.3373335 24.85,61.3 C25.0366676,61.2626665 25.1999993,61.1973338 25.34,61.104 C25.4800007,61.0106662 25.5919996,60.8916674 25.676,60.747 C25.7600004,60.6023326 25.802,60.4226677 25.802,60.208 C25.802,59.8626649 25.636335,59.6036675 25.305,59.431 C24.973665,59.2583325 24.4953365,59.0973341 23.87,58.948 C23.673999,58.9013331 23.4663344,58.8430004 23.247,58.773 C23.0276656,58.7029997 22.8246676,58.600334 22.638,58.465 C22.4513324,58.329666 22.2973339,58.1593344 22.176,57.954 C22.0546661,57.7486656 21.994,57.4920015 21.994,57.184 C21.994,56.8479983 22.0593327,56.5610012 22.19,56.323 C22.3206673,56.0849988 22.4956656,55.8890008 22.715,55.735 C22.9343344,55.5809992 23.1839986,55.466667 23.464,55.392 C23.7440014,55.317333 24.0333318,55.28 24.332,55.28 C24.7893356,55.28 25.2326645,55.3826656 25.662,55.588 C26.0913355,55.7933344 26.4133323,56.0826648 26.628,56.456 L25.9,57.002 Z M31.584,56.246 L29.736,56.246 L29.736,60.068 C29.736,60.3106679 29.7593331,60.5113325 29.806,60.67 C29.8526669,60.8286675 29.9203329,60.9523329 30.009,61.041 C30.0976671,61.1296671 30.2026661,61.1903332 30.324,61.223 C30.4453339,61.2556668 30.5759993,61.272 30.716,61.272 C30.8466673,61.272 30.9843326,61.2533335 31.129,61.216 C31.2736674,61.1786665 31.4113327,61.1273337 31.542,61.062 L31.584,61.888 C31.4159992,61.9533337 31.2410009,62.0023332 31.059,62.035 C30.8769991,62.0676668 30.6786677,62.084 30.464,62.084 C30.2866658,62.084 30.100001,62.0606669 29.904,62.014 C29.707999,61.9673331 29.5260008,61.8786673 29.358,61.748 C29.1899992,61.6173327 29.0523339,61.4400011 28.945,61.216 C28.8376661,60.9919989 28.784,60.6980018 28.784,60.334 L28.784,56.246 L27.426,56.246 L27.426,55.448 L28.784,55.448 L28.784,53.6 L29.736,53.6 L29.736,55.448 L31.584,55.448 L31.584,56.246 Z M39.522,56.246 L37.674,56.246 L37.674,60.068 C37.674,60.3106679 37.6973331,60.5113325 37.744,60.67 C37.7906669,60.8286675 37.8583329,60.9523329 37.947,61.041 C38.0356671,61.1296671 38.1406661,61.1903332 38.262,61.223 C38.3833339,61.2556668 38.5139993,61.272 38.654,61.272 C38.7846673,61.272 38.9223326,61.2533335 39.067,61.216 C39.2116674,61.1786665 39.3493327,61.1273337 39.48,61.062 L39.522,61.888 C39.3539992,61.9533337 39.1790009,62.0023332 38.997,62.035 C38.8149991,62.0676668 38.6166677,62.084 38.402,62.084 C38.2246658,62.084 38.038001,62.0606669 37.842,62.014 C37.645999,61.9673331 37.4640008,61.8786673 37.296,61.748 C37.1279992,61.6173327 36.9903339,61.4400011 36.883,61.216 C36.7756661,60.9919989 36.722,60.6980018 36.722,60.334 L36.722,56.246 L35.364,56.246 L35.364,55.448 L36.722,55.448 L36.722,53.6 L37.674,53.6 L37.674,55.448 L39.522,55.448 L39.522,56.246 Z M42.014,56.526 C42.1913342,56.1433314 42.4853313,55.8400011 42.896,55.616 C43.3066687,55.3919989 43.745331,55.28 44.212,55.28 C45.0426708,55.28 45.6656646,55.5273309 46.081,56.022 C46.4963354,56.5166691 46.704,57.1699959 46.704,57.982 L46.704,62 L45.752,62 L45.752,58.374 C45.752,58.0286649 45.7240003,57.7160014 45.668,57.436 C45.6119997,57.1559986 45.516334,56.9156677 45.381,56.715 C45.245666,56.5143323 45.0636678,56.3580006 44.835,56.246 C44.6063322,56.1339994 44.3193351,56.078 43.974,56.078 C43.7219987,56.078 43.4770012,56.1293328 43.239,56.232 C43.0009988,56.3346672 42.7886676,56.490999 42.602,56.701 C42.4153324,56.9110011 42.2660006,57.1769984 42.154,57.499 C42.0419994,57.8210016 41.986,58.2013311 41.986,58.64 L41.986,62 L41.034,62 L41.034,51.416 L41.986,51.416 L41.986,56.526 L42.014,56.526 Z M54.166,58.22 C54.1379999,57.6039969 53.9396685,57.093002 53.571,56.687 C53.2023315,56.280998 52.6773367,56.078 51.996,56.078 C51.6786651,56.078 51.384668,56.1363328 51.114,56.253 C50.843332,56.3696672 50.6053344,56.5283323 50.4,56.729 C50.1946656,56.9296677 50.0313339,57.1583321 49.91,57.415 C49.7886661,57.6716679 49.7186668,57.9399986 49.7,58.22 L54.166,58.22 Z M55.132,58.528 L55.132,58.738 C55.132,58.812667 55.1273334,58.8919996 55.118,58.976 L49.686,58.976 C49.6953334,59.3026683 49.7606661,59.6106652 49.882,59.9 C50.0033339,60.1893348 50.1713323,60.4413323 50.386,60.656 C50.6006677,60.8706677 50.8526652,61.0409994 51.142,61.167 C51.4313348,61.2930006 51.7439983,61.356 52.08,61.356 C52.5746691,61.356 53.0016649,61.2416678 53.361,61.013 C53.7203351,60.7843322 53.9933324,60.5206682 54.18,60.222 L54.894,60.782 C54.501998,61.2766691 54.0703357,61.6313323 53.599,61.846 C53.1276643,62.0606677 52.621336,62.168 52.08,62.168 C51.5946642,62.168 51.1443354,62.0816675 50.729,61.909 C50.3136646,61.7363325 49.9566682,61.4960015 49.658,61.188 C49.3593318,60.8799985 49.1236675,60.5160021 48.951,60.096 C48.7783325,59.6759979 48.692,59.2186691 48.692,58.724 C48.692,58.2293309 48.7759992,57.7720021 48.944,57.352 C49.1120008,56.9319979 49.3453318,56.5680015 49.644,56.26 C49.9426682,55.9519985 50.2926647,55.7116675 50.694,55.539 C51.0953353,55.3663325 51.529331,55.28 51.996,55.28 C52.5093359,55.28 52.961998,55.3663325 53.354,55.539 C53.746002,55.7116675 54.0726654,55.9449985 54.334,56.239 C54.5953346,56.5330015 54.793666,56.875998 54.929,57.268 C55.064334,57.660002 55.132,58.0799978 55.132,58.528 Z M65.674,58.22 C65.6459999,57.6039969 65.4476685,57.093002 65.079,56.687 C64.7103315,56.280998 64.1853367,56.078 63.504,56.078 C63.1866651,56.078 62.892668,56.1363328 62.622,56.253 C62.351332,56.3696672 62.1133344,56.5283323 61.908,56.729 C61.7026656,56.9296677 61.5393339,57.1583321 61.418,57.415 C61.2966661,57.6716679 61.2266668,57.9399986 61.208,58.22 L65.674,58.22 Z M66.64,58.528 L66.64,58.738 C66.64,58.812667 66.6353334,58.8919996 66.626,58.976 L61.194,58.976 C61.2033334,59.3026683 61.2686661,59.6106652 61.39,59.9 C61.5113339,60.1893348 61.6793323,60.4413323 61.894,60.656 C62.1086677,60.8706677 62.3606652,61.0409994 62.65,61.167 C62.9393348,61.2930006 63.2519983,61.356 63.588,61.356 C64.0826691,61.356 64.5096649,61.2416678 64.869,61.013 C65.2283351,60.7843322 65.5013324,60.5206682 65.688,60.222 L66.402,60.782 C66.009998,61.2766691 65.5783357,61.6313323 65.107,61.846 C64.6356643,62.0606677 64.129336,62.168 63.588,62.168 C63.1026642,62.168 62.6523354,62.0816675 62.237,61.909 C61.8216646,61.7363325 61.4646682,61.4960015 61.166,61.188 C60.8673318,60.8799985 60.6316675,60.5160021 60.459,60.096 C60.2863325,59.6759979 60.2,59.2186691 60.2,58.724 C60.2,58.2293309 60.2839992,57.7720021 60.452,57.352 C60.6200008,56.9319979 60.8533318,56.5680015 61.152,56.26 C61.4506682,55.9519985 61.8006647,55.7116675 62.202,55.539 C62.6033353,55.3663325 63.037331,55.28 63.504,55.28 C64.0173359,55.28 64.469998,55.3663325 64.862,55.539 C65.254002,55.7116675 65.5806654,55.9449985 65.842,56.239 C66.1033346,56.5330015 66.301666,56.875998 66.437,57.268 C66.572334,57.660002 66.64,58.0799978 66.64,58.528 Z M70.224,58.612 L67.802,55.448 L69.02,55.448 L70.812,57.94 L72.604,55.448 L73.752,55.448 L71.372,58.57 L73.976,62 L72.744,62 L70.798,59.27 L68.796,62 L67.648,62 L70.224,58.612 Z M76.412,65.36 L75.46,65.36 L75.46,55.448 L76.412,55.448 L76.412,56.582 L76.454,56.582 C76.724668,56.1526645 77.0863311,55.8283344 77.539,55.609 C77.9916689,55.3896656 78.451331,55.28 78.918,55.28 C79.4313359,55.28 79.8956646,55.3686658 80.311,55.546 C80.7263354,55.7233342 81.0809985,55.9659985 81.375,56.274 C81.6690015,56.5820015 81.8976658,56.9459979 82.061,57.366 C82.2243341,57.7860021 82.306,58.2386642 82.306,58.724 C82.306,59.2093358 82.2243341,59.6619979 82.061,60.082 C81.8976658,60.5020021 81.6690015,60.8659985 81.375,61.174 C81.0809985,61.4820015 80.7263354,61.7246658 80.311,61.902 C79.8956646,62.0793342 79.4313359,62.168 78.918,62.168 C78.451331,62.168 77.9916689,62.0583344 77.539,61.839 C77.0863311,61.6196656 76.724668,61.3046687 76.454,60.894 L76.412,60.894 L76.412,65.36 Z M81.298,58.724 C81.298,58.3599982 81.2420006,58.0170016 81.13,57.695 C81.0179994,57.3729984 80.857001,57.0930012 80.647,56.855 C80.4369989,56.6169988 80.1780015,56.4280007 79.87,56.288 C79.5619985,56.1479993 79.212002,56.078 78.82,56.078 C78.4559982,56.078 78.1200015,56.145666 77.812,56.281 C77.5039985,56.416334 77.2380011,56.6029988 77.014,56.841 C76.7899989,57.0790012 76.6150006,57.3589984 76.489,57.681 C76.3629994,58.0030016 76.3,58.3506648 76.3,58.724 C76.3,59.0973352 76.3629994,59.4449984 76.489,59.767 C76.6150006,60.0890016 76.7899989,60.3666655 77.014,60.6 C77.2380011,60.8333345 77.5039985,61.017666 77.812,61.153 C78.1200015,61.288334 78.4559982,61.356 78.82,61.356 C79.212002,61.356 79.5619985,61.288334 79.87,61.153 C80.1780015,61.017666 80.4369989,60.8310012 80.647,60.593 C80.857001,60.3549988 81.0179994,60.0750016 81.13,59.753 C81.2420006,59.4309984 81.298,59.0880018 81.298,58.724 Z M89.348,58.22 C89.3199999,57.6039969 89.1216685,57.093002 88.753,56.687 C88.3843315,56.280998 87.8593367,56.078 87.178,56.078 C86.8606651,56.078 86.566668,56.1363328 86.296,56.253 C86.025332,56.3696672 85.7873344,56.5283323 85.582,56.729 C85.3766656,56.9296677 85.2133339,57.1583321 85.092,57.415 C84.9706661,57.6716679 84.9006668,57.9399986 84.882,58.22 L89.348,58.22 Z M90.314,58.528 L90.314,58.738 C90.314,58.812667 90.3093334,58.8919996 90.3,58.976 L84.868,58.976 C84.8773334,59.3026683 84.9426661,59.6106652 85.064,59.9 C85.1853339,60.1893348 85.3533323,60.4413323 85.568,60.656 C85.7826677,60.8706677 86.0346652,61.0409994 86.324,61.167 C86.6133348,61.2930006 86.9259983,61.356 87.262,61.356 C87.7566691,61.356 88.1836649,61.2416678 88.543,61.013 C88.9023351,60.7843322 89.1753324,60.5206682 89.362,60.222 L90.076,60.782 C89.683998,61.2766691 89.2523357,61.6313323 88.781,61.846 C88.3096643,62.0606677 87.803336,62.168 87.262,62.168 C86.7766642,62.168 86.3263354,62.0816675 85.911,61.909 C85.4956646,61.7363325 85.1386682,61.4960015 84.84,61.188 C84.5413318,60.8799985 84.3056675,60.5160021 84.133,60.096 C83.9603325,59.6759979 83.874,59.2186691 83.874,58.724 C83.874,58.2293309 83.9579992,57.7720021 84.126,57.352 C84.2940008,56.9319979 84.5273318,56.5680015 84.826,56.26 C85.1246682,55.9519985 85.4746647,55.7116675 85.876,55.539 C86.2773353,55.3663325 86.711331,55.28 87.178,55.28 C87.6913359,55.28 88.143998,55.3663325 88.536,55.539 C88.928002,55.7116675 89.2546654,55.9449985 89.516,56.239 C89.7773346,56.5330015 89.975666,56.875998 90.111,57.268 C90.246334,57.660002 90.314,58.0799978 90.314,58.528 Z M92.358,56.89 C92.358,56.7126658 92.3533334,56.4840014 92.344,56.204 C92.3346666,55.9239986 92.3206668,55.6720011 92.302,55.448 L93.212,55.448 C93.2306668,55.6253342 93.2446666,55.8213323 93.254,56.036 C93.2633334,56.2506677 93.268,56.4279993 93.268,56.568 L93.296,56.568 C93.4826676,56.1853314 93.7626648,55.8750012 94.136,55.637 C94.5093352,55.3989988 94.929331,55.28 95.396,55.28 C95.5173339,55.28 95.6269995,55.2846666 95.725,55.294 C95.8230005,55.3033334 95.9233328,55.3219999 96.026,55.35 L95.9,56.246 C95.8439997,56.2273332 95.7506673,56.2086668 95.62,56.19 C95.4893327,56.1713332 95.3586673,56.162 95.228,56.162 C94.9759987,56.162 94.7333345,56.2086662 94.5,56.302 C94.2666655,56.3953338 94.0636675,56.5423323 93.891,56.743 C93.7183325,56.9436677 93.5783339,57.2003318 93.471,57.513 C93.3636661,57.8256682 93.31,58.2013311 93.31,58.64 L93.31,62 L92.358,62 L92.358,56.89 Z M100.352,56.246 L98.504,56.246 L98.504,60.068 C98.504,60.3106679 98.5273331,60.5113325 98.574,60.67 C98.6206669,60.8286675 98.6883329,60.9523329 98.777,61.041 C98.8656671,61.1296671 98.9706661,61.1903332 99.092,61.223 C99.2133339,61.2556668 99.3439993,61.272 99.484,61.272 C99.6146673,61.272 99.7523326,61.2533335 99.897,61.216 C100.041667,61.1786665 100.179333,61.1273337 100.31,61.062 L100.352,61.888 C100.183999,61.9533337 100.009001,62.0023332 99.827,62.035 C99.6449991,62.0676668 99.4466677,62.084 99.232,62.084 C99.0546658,62.084 98.868001,62.0606669 98.672,62.014 C98.475999,61.9673331 98.2940008,61.8786673 98.126,61.748 C97.9579992,61.6173327 97.8203339,61.4400011 97.713,61.216 C97.6056661,60.9919989 97.552,60.6980018 97.552,60.334 L97.552,56.246 L96.194,56.246 L96.194,55.448 L97.552,55.448 L97.552,53.6 L98.504,53.6 L98.504,55.448 L100.352,55.448 L100.352,56.246 Z M105.322,57.002 C105.181999,56.731332 104.969668,56.5096675 104.685,56.337 C104.400332,56.1643325 104.076002,56.078 103.712,56.078 C103.543999,56.078 103.376001,56.0966665 103.208,56.134 C103.039999,56.1713335 102.890667,56.2319996 102.76,56.316 C102.629333,56.4000004 102.524334,56.5073327 102.445,56.638 C102.365666,56.7686673 102.326,56.9226658 102.326,57.1 C102.326,57.4080015 102.451999,57.6436658 102.704,57.807 C102.956001,57.9703341 103.352664,58.1079994 103.894,58.22 C104.668671,58.3786675 105.240331,58.6096652 105.609,58.913 C105.977669,59.2163349 106.162,59.6246641 106.162,60.138 C106.162,60.5113352 106.089667,60.826332 105.945,61.083 C105.800333,61.339668 105.611334,61.5496658 105.378,61.713 C105.144665,61.8763341 104.881001,61.9929997 104.587,62.063 C104.292999,62.1330004 103.996668,62.168 103.698,62.168 C103.203331,62.168 102.722669,62.0653344 102.256,61.86 C101.789331,61.6546656 101.406668,61.3326689 101.108,60.894 L101.864,60.334 C102.032001,60.6233348 102.279332,60.865999 102.606,61.062 C102.932668,61.258001 103.291998,61.356 103.684,61.356 C103.889334,61.356 104.085332,61.3373335 104.272,61.3 C104.458668,61.2626665 104.621999,61.1973338 104.762,61.104 C104.902001,61.0106662 105.014,60.8916674 105.098,60.747 C105.182,60.6023326 105.224,60.4226677 105.224,60.208 C105.224,59.8626649 105.058335,59.6036675 104.727,59.431 C104.395665,59.2583325 103.917336,59.0973341 103.292,58.948 C103.095999,58.9013331 102.888334,58.8430004 102.669,58.773 C102.449666,58.7029997 102.246668,58.600334 102.06,58.465 C101.873332,58.329666 101.719334,58.1593344 101.598,57.954 C101.476666,57.7486656 101.416,57.4920015 101.416,57.184 C101.416,56.8479983 101.481333,56.5610012 101.612,56.323 C101.742667,56.0849988 101.917666,55.8890008 102.137,55.735 C102.356334,55.5809992 102.605999,55.466667 102.886,55.392 C103.166001,55.317333 103.455332,55.28 103.754,55.28 C104.211336,55.28 104.654665,55.3826656 105.084,55.588 C105.513335,55.7933344 105.835332,56.0826648 106.05,56.456 L105.322,57.002 Z M111.678,55.448 L113.26,60.768 L113.288,60.768 L115.052,55.448 L115.976,55.448 L117.768,60.768 L117.796,60.768 L119.364,55.448 L120.372,55.448 L118.3,62 L117.264,62 L115.514,56.694 L115.486,56.694 L113.764,62 L112.728,62 L110.656,55.448 L111.678,55.448 Z M122.962,62 L122.01,62 L122.01,55.448 L122.962,55.448 L122.962,62 Z M123.158,52.928 C123.158,53.124001 123.088001,53.2849994 122.948,53.411 C122.807999,53.5370006 122.654001,53.6 122.486,53.6 C122.317999,53.6 122.164001,53.5370006 122.024,53.411 C121.883999,53.2849994 121.814,53.124001 121.814,52.928 C121.814,52.731999 121.883999,52.5710006 122.024,52.445 C122.164001,52.3189994 122.317999,52.256 122.486,52.256 C122.654001,52.256 122.807999,52.3189994 122.948,52.445 C123.088001,52.5710006 123.158,52.731999 123.158,52.928 Z M128.45,56.246 L126.602,56.246 L126.602,60.068 C126.602,60.3106679 126.625333,60.5113325 126.672,60.67 C126.718667,60.8286675 126.786333,60.9523329 126.875,61.041 C126.963667,61.1296671 127.068666,61.1903332 127.19,61.223 C127.311334,61.2556668 127.441999,61.272 127.582,61.272 C127.712667,61.272 127.850333,61.2533335 127.995,61.216 C128.139667,61.1786665 128.277333,61.1273337 128.408,61.062 L128.45,61.888 C128.281999,61.9533337 128.107001,62.0023332 127.925,62.035 C127.742999,62.0676668 127.544668,62.084 127.33,62.084 C127.152666,62.084 126.966001,62.0606669 126.77,62.014 C126.573999,61.9673331 126.392001,61.8786673 126.224,61.748 C126.055999,61.6173327 125.918334,61.4400011 125.811,61.216 C125.703666,60.9919989 125.65,60.6980018 125.65,60.334 L125.65,56.246 L124.292,56.246 L124.292,55.448 L125.65,55.448 L125.65,53.6 L126.602,53.6 L126.602,55.448 L128.45,55.448 L128.45,56.246 Z M130.942,56.526 C131.119334,56.1433314 131.413331,55.8400011 131.824,55.616 C132.234669,55.3919989 132.673331,55.28 133.14,55.28 C133.970671,55.28 134.593665,55.5273309 135.009,56.022 C135.424335,56.5166691 135.632,57.1699959 135.632,57.982 L135.632,62 L134.68,62 L134.68,58.374 C134.68,58.0286649 134.652,57.7160014 134.596,57.436 C134.54,57.1559986 134.444334,56.9156677 134.309,56.715 C134.173666,56.5143323 133.991668,56.3580006 133.763,56.246 C133.534332,56.1339994 133.247335,56.078 132.902,56.078 C132.649999,56.078 132.405001,56.1293328 132.167,56.232 C131.928999,56.3346672 131.716668,56.490999 131.53,56.701 C131.343332,56.9110011 131.194001,57.1769984 131.082,57.499 C130.969999,57.8210016 130.914,58.2013311 130.914,58.64 L130.914,62 L129.962,62 L129.962,51.416 L130.914,51.416 L130.914,56.526 L130.942,56.526 Z M143.85,60.978 L143.878,60.978 L145.908,55.448 L146.944,55.448 L143.682,63.694 C143.485999,64.1980025 143.236335,64.6016652 142.933,64.905 C142.629665,65.2083348 142.193336,65.36 141.624,65.36 C141.334665,65.36 141.050001,65.3320003 140.77,65.276 L140.868,64.408 C141.092001,64.482667 141.325332,64.52 141.568,64.52 C141.894668,64.52 142.151332,64.4196677 142.338,64.219 C142.524668,64.0183323 142.687999,63.7313352 142.828,63.358 L143.36,61.986 L140.56,55.448 L141.624,55.448 L143.85,60.978 Z M154.938,58.724 C154.938,59.2186691 154.851668,59.6759979 154.679,60.096 C154.506332,60.5160021 154.266002,60.8799985 153.958,61.188 C153.649998,61.4960015 153.281335,61.7363325 152.852,61.909 C152.422665,62.0816675 151.951336,62.168 151.438,62.168 C150.933997,62.168 150.467335,62.0816675 150.038,61.909 C149.608665,61.7363325 149.240002,61.4960015 148.932,61.188 C148.623998,60.8799985 148.383668,60.5160021 148.211,60.096 C148.038332,59.6759979 147.952,59.2186691 147.952,58.724 C147.952,58.2293309 148.038332,57.7720021 148.211,57.352 C148.383668,56.9319979 148.623998,56.5680015 148.932,56.26 C149.240002,55.9519985 149.608665,55.7116675 150.038,55.539 C150.467335,55.3663325 150.933997,55.28 151.438,55.28 C151.951336,55.28 152.422665,55.3663325 152.852,55.539 C153.281335,55.7116675 153.649998,55.9519985 153.958,56.26 C154.266002,56.5680015 154.506332,56.9319979 154.679,57.352 C154.851668,57.7720021 154.938,58.2293309 154.938,58.724 Z M153.93,58.724 C153.93,58.3599982 153.871667,58.0170016 153.755,57.695 C153.638333,57.3729984 153.472668,57.0930012 153.258,56.855 C153.043332,56.6169988 152.782002,56.4280007 152.474,56.288 C152.165998,56.1479993 151.820669,56.078 151.438,56.078 C151.055331,56.078 150.712335,56.1479993 150.409,56.288 C150.105665,56.4280007 149.846668,56.6169988 149.632,56.855 C149.417332,57.0930012 149.251667,57.3729984 149.135,57.695 C149.018333,58.0170016 148.96,58.3599982 148.96,58.724 C148.96,59.0880018 149.018333,59.4309984 149.135,59.753 C149.251667,60.0750016 149.417332,60.3549988 149.632,60.593 C149.846668,60.8310012 150.105665,61.017666 150.409,61.153 C150.712335,61.288334 151.055331,61.356 151.438,61.356 C151.820669,61.356 152.165998,61.288334 152.474,61.153 C152.782002,61.017666 153.043332,60.8310012 153.258,60.593 C153.472668,60.3549988 153.638333,60.0750016 153.755,59.753 C153.871667,59.4309984 153.93,59.0880018 153.93,58.724 Z M161.742,62 C161.723333,61.8226658 161.709333,61.6266677 161.7,61.412 C161.690667,61.1973323 161.686,61.0200007 161.686,60.88 L161.658,60.88 C161.471332,61.2626686 161.168002,61.5729988 160.748,61.811 C160.327998,62.0490012 159.884669,62.168 159.418,62.168 C158.587329,62.168 157.964335,61.9206691 157.549,61.426 C157.133665,60.9313309 156.926,60.2780041 156.926,59.466 L156.926,55.448 L157.878,55.448 L157.878,59.074 C157.878,59.4193351 157.906,59.7319986 157.962,60.012 C158.018,60.2920014 158.113666,60.5323323 158.249,60.733 C158.384334,60.9336677 158.566332,61.0899994 158.795,61.202 C159.023668,61.3140006 159.310665,61.37 159.656,61.37 C159.908001,61.37 160.152999,61.3186672 160.391,61.216 C160.629001,61.1133328 160.841332,60.9570011 161.028,60.747 C161.214668,60.5369989 161.363999,60.2710016 161.476,59.949 C161.588001,59.6269984 161.644,59.2466689 161.644,58.808 L161.644,55.448 L162.596,55.448 L162.596,60.558 C162.596,60.7353342 162.600667,60.9639986 162.61,61.244 C162.619333,61.5240014 162.633333,61.7759989 162.652,62 L161.742,62 Z M165.116,56.89 C165.116,56.7126658 165.111333,56.4840014 165.102,56.204 C165.092667,55.9239986 165.078667,55.6720011 165.06,55.448 L165.97,55.448 C165.988667,55.6253342 166.002667,55.8213323 166.012,56.036 C166.021333,56.2506677 166.026,56.4279993 166.026,56.568 L166.054,56.568 C166.240668,56.1853314 166.520665,55.8750012 166.894,55.637 C167.267335,55.3989988 167.687331,55.28 168.154,55.28 C168.275334,55.28 168.385,55.2846666 168.483,55.294 C168.581,55.3033334 168.681333,55.3219999 168.784,55.35 L168.658,56.246 C168.602,56.2273332 168.508667,56.2086668 168.378,56.19 C168.247333,56.1713332 168.116667,56.162 167.986,56.162 C167.733999,56.162 167.491334,56.2086662 167.258,56.302 C167.024665,56.3953338 166.821668,56.5423323 166.649,56.743 C166.476332,56.9436677 166.336334,57.2003318 166.229,57.513 C166.121666,57.8256682 166.068,58.2013311 166.068,58.64 L166.068,62 L165.116,62 L165.116,56.89 Z M174.664,56.526 C174.841334,56.1433314 175.135331,55.8400011 175.546,55.616 C175.956669,55.3919989 176.395331,55.28 176.862,55.28 C177.692671,55.28 178.315665,55.5273309 178.731,56.022 C179.146335,56.5166691 179.354,57.1699959 179.354,57.982 L179.354,62 L178.402,62 L178.402,58.374 C178.402,58.0286649 178.374,57.7160014 178.318,57.436 C178.262,57.1559986 178.166334,56.9156677 178.031,56.715 C177.895666,56.5143323 177.713668,56.3580006 177.485,56.246 C177.256332,56.1339994 176.969335,56.078 176.624,56.078 C176.371999,56.078 176.127001,56.1293328 175.889,56.232 C175.650999,56.3346672 175.438668,56.490999 175.252,56.701 C175.065332,56.9110011 174.916001,57.1769984 174.804,57.499 C174.691999,57.8210016 174.636,58.2013311 174.636,58.64 L174.636,62 L173.684,62 L173.684,51.416 L174.636,51.416 L174.636,56.526 L174.664,56.526 Z M188.328,58.724 C188.328,59.2186691 188.241668,59.6759979 188.069,60.096 C187.896332,60.5160021 187.656002,60.8799985 187.348,61.188 C187.039998,61.4960015 186.671335,61.7363325 186.242,61.909 C185.812665,62.0816675 185.341336,62.168 184.828,62.168 C184.323997,62.168 183.857335,62.0816675 183.428,61.909 C182.998665,61.7363325 182.630002,61.4960015 182.322,61.188 C182.013998,60.8799985 181.773668,60.5160021 181.601,60.096 C181.428332,59.6759979 181.342,59.2186691 181.342,58.724 C181.342,58.2293309 181.428332,57.7720021 181.601,57.352 C181.773668,56.9319979 182.013998,56.5680015 182.322,56.26 C182.630002,55.9519985 182.998665,55.7116675 183.428,55.539 C183.857335,55.3663325 184.323997,55.28 184.828,55.28 C185.341336,55.28 185.812665,55.3663325 186.242,55.539 C186.671335,55.7116675 187.039998,55.9519985 187.348,56.26 C187.656002,56.5680015 187.896332,56.9319979 188.069,57.352 C188.241668,57.7720021 188.328,58.2293309 188.328,58.724 Z M187.32,58.724 C187.32,58.3599982 187.261667,58.0170016 187.145,57.695 C187.028333,57.3729984 186.862668,57.0930012 186.648,56.855 C186.433332,56.6169988 186.172002,56.4280007 185.864,56.288 C185.555998,56.1479993 185.210669,56.078 184.828,56.078 C184.445331,56.078 184.102335,56.1479993 183.799,56.288 C183.495665,56.4280007 183.236668,56.6169988 183.022,56.855 C182.807332,57.0930012 182.641667,57.3729984 182.525,57.695 C182.408333,58.0170016 182.35,58.3599982 182.35,58.724 C182.35,59.0880018 182.408333,59.4309984 182.525,59.753 C182.641667,60.0750016 182.807332,60.3549988 183.022,60.593 C183.236668,60.8310012 183.495665,61.017666 183.799,61.153 C184.102335,61.288334 184.445331,61.356 184.828,61.356 C185.210669,61.356 185.555998,61.288334 185.864,61.153 C186.172002,61.017666 186.433332,60.8310012 186.648,60.593 C186.862668,60.3549988 187.028333,60.0750016 187.145,59.753 C187.261667,59.4309984 187.32,59.0880018 187.32,58.724 Z M191.31,56.568 C191.496668,56.1853314 191.783665,55.8750012 192.171,55.637 C192.558335,55.3989988 192.989998,55.28 193.466,55.28 C193.643334,55.28 193.827666,55.2986665 194.019,55.336 C194.210334,55.3733335 194.396999,55.4456661 194.579,55.553 C194.761001,55.6603339 194.928999,55.8026658 195.083,55.98 C195.237001,56.1573342 195.369999,56.3859986 195.482,56.666 C195.706001,56.2179978 196.011665,55.8750012 196.399,55.637 C196.786335,55.3989988 197.245997,55.28 197.778,55.28 C198.608671,55.28 199.231665,55.5273309 199.647,56.022 C200.062335,56.5166691 200.27,57.1699959 200.27,57.982 L200.27,62 L199.318,62 L199.318,58.374 C199.318,57.6833299 199.189668,57.1280021 198.933,56.708 C198.676332,56.2879979 198.240003,56.078 197.624,56.078 C197.278665,56.078 196.987001,56.1479993 196.749,56.288 C196.510999,56.4280007 196.319667,56.6123322 196.175,56.841 C196.030333,57.0696678 195.925334,57.3286652 195.86,57.618 C195.794666,57.9073348 195.762,58.2059985 195.762,58.514 L195.762,62 L194.81,62 L194.81,58.178 C194.81,57.8606651 194.786667,57.5713346 194.74,57.31 C194.693333,57.0486654 194.611667,56.8270009 194.495,56.645 C194.378333,56.4629991 194.217334,56.3230005 194.012,56.225 C193.806666,56.1269995 193.545335,56.078 193.228,56.078 C193.003999,56.078 192.777668,56.1293328 192.549,56.232 C192.320332,56.3346672 192.115001,56.490999 191.933,56.701 C191.750999,56.9110011 191.604001,57.1769984 191.492,57.499 C191.379999,57.8210016 191.324,58.2013311 191.324,58.64 L191.324,62 L190.372,62 L190.372,56.89 C190.372,56.7126658 190.367333,56.4840014 190.358,56.204 C190.348667,55.9239986 190.334667,55.6720011 190.316,55.448 L191.226,55.448 C191.244667,55.6253342 191.258667,55.8213323 191.268,56.036 C191.277333,56.2506677 191.282,56.4279993 191.282,56.568 L191.31,56.568 Z M207.732,58.22 C207.704,57.6039969 207.505669,57.093002 207.137,56.687 C206.768331,56.280998 206.243337,56.078 205.562,56.078 C205.244665,56.078 204.950668,56.1363328 204.68,56.253 C204.409332,56.3696672 204.171334,56.5283323 203.966,56.729 C203.760666,56.9296677 203.597334,57.1583321 203.476,57.415 C203.354666,57.6716679 203.284667,57.9399986 203.266,58.22 L207.732,58.22 Z M208.698,58.528 L208.698,58.738 C208.698,58.812667 208.693333,58.8919996 208.684,58.976 L203.252,58.976 C203.261333,59.3026683 203.326666,59.6106652 203.448,59.9 C203.569334,60.1893348 203.737332,60.4413323 203.952,60.656 C204.166668,60.8706677 204.418665,61.0409994 204.708,61.167 C204.997335,61.2930006 205.309998,61.356 205.646,61.356 C206.140669,61.356 206.567665,61.2416678 206.927,61.013 C207.286335,60.7843322 207.559332,60.5206682 207.746,60.222 L208.46,60.782 C208.067998,61.2766691 207.636336,61.6313323 207.165,61.846 C206.693664,62.0606677 206.187336,62.168 205.646,62.168 C205.160664,62.168 204.710335,62.0816675 204.295,61.909 C203.879665,61.7363325 203.522668,61.4960015 203.224,61.188 C202.925332,60.8799985 202.689668,60.5160021 202.517,60.096 C202.344332,59.6759979 202.258,59.2186691 202.258,58.724 C202.258,58.2293309 202.341999,57.7720021 202.51,57.352 C202.678001,56.9319979 202.911332,56.5680015 203.21,56.26 C203.508668,55.9519985 203.858665,55.7116675 204.26,55.539 C204.661335,55.3663325 205.095331,55.28 205.562,55.28 C206.075336,55.28 206.527998,55.3663325 206.92,55.539 C207.312002,55.7116675 207.638665,55.9449985 207.9,56.239 C208.161335,56.5330015 208.359666,56.875998 208.495,57.268 C208.630334,57.660002 208.698,58.0799978 208.698,58.528 Z M212.058,61.328 C212.058,61.524001 211.988001,61.6989992 211.848,61.853 C211.707999,62.0070008 211.526001,62.084 211.302,62.084 C211.077999,62.084 210.896001,62.0070008 210.756,61.853 C210.615999,61.6989992 210.546,61.524001 210.546,61.328 C210.546,61.131999 210.615999,60.9570008 210.756,60.803 C210.896001,60.6489992 211.077999,60.572 211.302,60.572 C211.526001,60.572 211.707999,60.6489992 211.848,60.803 C211.988001,60.9570008 212.058,61.131999 212.058,61.328 Z" id="Trust-the-experts-wi" fill="#FFFFFF"></path>
                    <g id="Local-Dwelling-Logo" transform="translate(1.000000, 0.000000)" stroke-width="1">
                        <g id="Page-1-Copy" transform="translate(0.000000, 13.972350)" fill="#FFFFFF">
                            <polygon id="Fill-3" points="0 28.2740813 0 1.58747546 3.59456017 1.58747546 3.59456017 24.9950491 15.4944739 24.9950491 15.4944739 28.2740813"></polygon>
                            <path d="M19.9705822,18.4736255 C19.9705822,23.3675245 21.6784584,25.8151403 25.0928962,25.8151403 C26.6863881,25.8151403 27.9367271,25.1596003 28.8412835,23.8471879 C29.7471548,22.536108 30.1981182,20.7440323 30.1981182,18.4736255 C30.1981182,13.6396844 28.4968158,11.2240463 25.0928962,11.2240463 C23.5362176,11.2240463 22.2924524,11.8675947 21.3642302,13.1546914 C20.4360081,14.4417882 19.9705822,16.2152104 19.9705822,18.4736255 M16.376022,18.4736255 C16.376022,15.4610729 17.1753975,13.029446 18.7754632,11.1774123 C20.375529,9.32671108 22.4804635,8.39936185 25.0928962,8.39936185 C27.8499528,8.39936185 29.989071,9.28940393 31.510251,11.0681557 C33.0327458,12.8469074 33.7939932,15.3158415 33.7939932,18.4736255 C33.7939932,21.6180856 33.0143391,24.1003436 31.4563458,25.9150701 C29.8996672,27.7297966 27.7776408,28.6384923 25.0928962,28.6384923 C22.350302,28.6384923 20.2111837,27.7204698 18.6768561,25.8870898 C17.1425285,24.0537097 16.376022,21.5821108 16.376022,18.4736255" id="Fill-5"></path>
                            <path d="M51.9126012,10.3491935 L50.2231316,12.7901473 C49.8747196,12.4370617 49.2607256,12.1039621 48.3798348,11.7881837 C47.5002588,11.4724053 46.6338305,11.3151823 45.7831793,11.3151823 C43.9254201,11.3151823 42.4515716,11.9733871 41.3616336,13.291129 C40.2716956,14.608871 39.7247545,16.4156031 39.7247545,18.709993 C39.7247545,20.9937237 40.2822137,22.7338359 41.3971322,23.9289972 C42.5120506,25.1254909 44.0568963,25.7237377 46.0342989,25.7237377 C47.5686265,25.7237377 49.114787,25.1228261 50.6727803,23.9210028 L52.0204117,26.8349579 C50.187633,28.0367812 47.9157237,28.6390252 45.2073134,28.6390252 C42.5830478,28.6390252 40.4150047,27.7463184 38.7005547,25.9609046 C36.9861046,24.1754909 36.1301943,21.7585203 36.1301943,18.709993 C36.1301943,15.6015077 37.0202884,13.1059257 38.7991618,11.2232468 C40.57935,9.34056802 43.0142898,8.39989481 46.1066108,8.39989481 C47.1018859,8.39989481 48.179991,8.61174614 49.3422408,9.0381136 C50.5044907,9.46314867 51.3617158,9.90017532 51.9126012,10.3491935" id="Fill-7"></path>
                            <path d="M65.4312503,18.6922721 C64.3531452,18.4484432 63.5971568,18.3285273 63.1659148,18.3285273 C61.4409466,18.3285273 60.0328362,18.7762132 58.9415835,19.675582 C57.8503307,20.5749509 57.3060191,21.6368724 57.3060191,22.8640112 C57.3060191,24.8919215 58.4866757,25.9058766 60.8479888,25.9058766 C62.572957,25.9058766 64.1007108,25.07446 65.4312503,23.4102945 L65.4312503,18.6922721 Z M65.7546818,26.0337868 C64.3886437,27.7699018 62.2968569,28.6386255 59.4819508,28.6386255 C57.9712889,28.6386255 56.6617856,28.0830154 55.553441,26.9717952 C54.4450963,25.860575 53.8915814,24.478878 53.8915814,22.8280365 C53.8915814,20.8480926 54.7448622,19.1746003 56.4527384,17.808892 C58.1606147,16.4431837 60.337861,15.7596634 62.9871071,15.7596634 C63.7062821,15.7596634 64.52012,15.9168864 65.4312503,16.2326648 C65.4312503,13.0748808 64.0402317,11.4973212 61.2608242,11.4973212 C59.126965,11.4973212 57.4861416,12.0795792 56.3357246,13.2454278 L54.8973746,10.3487938 C55.5442376,9.8145021 56.4395908,9.35615708 57.5847488,8.97375877 C58.728592,8.59136045 59.8224742,8.39949509 60.8650807,8.39949509 C63.6563211,8.39949509 65.6849994,9.04437588 66.9498007,10.3314727 C68.2132873,11.617237 68.8470028,13.6651332 68.8470028,16.4698317 L68.8470028,23.4649229 C68.8470028,25.1770547 69.349242,26.3189201 70.3563499,26.8891865 L70.3563499,28.6199719 C68.9653314,28.6199719 67.9253544,28.4201122 67.2377337,28.0190603 C66.5487982,27.6180084 66.0544476,26.9558065 65.7546818,26.0337868 L65.7546818,26.0337868 Z" id="Fill-9"></path>
                            <path d="M73.0180862,22.7544881 L73.0180862,0.767251052 L76.4338387,0.767251052 L76.4338387,22.17223 C76.4338387,23.2168303 76.7296602,24.0389201 77.322618,24.6398317 C77.9168906,25.2407433 78.6912856,25.5418654 79.6510621,25.5418654 L79.6510621,28.638359 C75.2295164,28.638359 73.0180862,26.6770687 73.0180862,22.7544881" id="Fill-11"></path>
                            <path d="M98.560894,4.86610799 L98.560894,24.8134432 C99.3628991,24.9346914 100.358174,24.9946494 101.545404,24.9946494 C104.06186,24.9946494 106.037947,24.0393198 107.476297,22.1259958 C108.914647,20.2140042 109.633822,17.5558696 109.633822,14.1569215 C109.633822,7.84135344 106.834693,4.68356942 101.239065,4.68356942 C100.902486,4.68356942 100.011077,4.74485975 98.560894,4.86610799 M100.26877,28.2736816 L94.9663339,28.2736816 L94.9663339,1.58707574 C98.345273,1.46582749 100.506742,1.40453717 101.454686,1.40453717 C105.133391,1.40453717 108.045589,2.53707574 110.191281,4.80215288 C112.335659,7.06723001 113.408505,10.0824474 113.408505,13.8464727 C113.408505,23.4650561 109.027717,28.2736816 100.26877,28.2736816" id="Fill-13"></path>
                            <polygon id="Fill-15" points="135.068688 28.6384923 134.169391 28.6384923 128.525116 15.3584783 122.899248 28.6384923 122.001265 28.6384923 115.115855 8.70981066 118.765635 8.70981066 122.880841 21.5154909 128.00447 8.70981066 128.903768 8.70981066 134.187797 21.5154909 138.609343 8.70981066 141.97119 8.70981066"></polygon>
                            <path d="M151.85886,11.3146494 C150.336366,11.3146494 149.059731,11.8129663 148.030272,12.8082679 C147.04683,13.7556031 146.489371,14.9334432 146.357895,16.3417882 L157.017988,16.3417882 C157.017988,14.9467672 156.586746,13.7809187 155.722947,12.8442426 C154.776318,11.8249579 153.487851,11.3146494 151.85886,11.3146494 M160.145807,18.8560238 L146.268491,18.8560238 C146.268491,21.1397546 146.885114,22.8931907 148.119676,24.1203296 C149.209614,25.188913 150.612466,25.7232048 152.325601,25.7232048 C154.279338,25.7232048 155.908328,25.1476087 157.215202,23.9937518 L158.653552,26.4893338 C158.126332,27.0236255 157.316439,27.4846353 156.226501,27.8736957 C154.860463,28.3840042 153.337968,28.6384923 151.661646,28.6384923 C149.239854,28.6384923 147.18488,27.8070757 145.495411,26.1429102 C143.613986,24.3095302 142.673931,21.8432609 142.673931,18.7467672 C142.673931,15.5290252 143.637652,12.9481697 145.567723,11.005533 C147.292691,9.26808555 149.335831,8.39936185 151.697145,8.39936185 C154.441053,8.39936185 156.592005,9.18281206 158.149998,10.7497125 C159.66066,12.2553226 160.415333,14.2539201 160.415333,16.7428401 C160.415333,17.5076367 160.324615,18.2124755 160.145807,18.8560238" id="Fill-17"></path>
                            <path d="M163.542759,22.7544881 L163.542759,0.767251052 L166.958511,0.767251052 L166.958511,22.17223 C166.958511,23.2168303 167.254333,24.0389201 167.84729,24.6398317 C168.441563,25.2407433 169.215958,25.5418654 170.175734,25.5418654 L170.175734,28.638359 C165.754189,28.638359 163.542759,26.6770687 163.542759,22.7544881" id="Fill-19"></path>
                            <path d="M174.399934,22.7544881 L174.399934,0.767251052 L177.815687,0.767251052 L177.815687,22.17223 C177.815687,23.2168303 178.111508,24.0389201 178.704466,24.6398317 C179.298739,25.2407433 180.073134,25.5418654 181.03291,25.5418654 L181.03291,28.638359 C176.611364,28.638359 174.399934,26.6770687 174.399934,22.7544881" id="Fill-21"></path>
                            <path d="M187.037824,1.38668303 C187.624208,1.38668303 188.125133,1.59586957 188.539283,2.01557504 C188.952118,2.43394811 189.158536,2.93492987 189.158536,3.51852034 C189.158536,4.11276999 188.952118,4.62041374 188.539283,5.03878682 C188.125133,5.45849229 187.624208,5.66767882 187.037824,5.66767882 C186.463273,5.66767882 185.968922,5.45849229 185.554772,5.03878682 C185.141937,4.62041374 184.934204,4.11276999 184.934204,3.51852034 C184.934204,2.92293829 185.139307,2.41795933 185.545569,2.00624825 C185.953145,1.59320477 186.45144,1.38668303 187.037824,1.38668303 L187.037824,1.38668303 Z M185.168232,28.2744811 L185.168232,11.67946 L182.52556,11.67946 L182.52556,8.76417251 L188.583985,8.76417251 L188.583985,28.2744811 L185.168232,28.2744811 Z" id="Fill-23"></path>
                            <path d="M205.122117,28.2740813 L205.122117,16.9247125 C205.122117,14.8488359 204.813148,13.3938569 204.196524,12.5624404 C203.578586,11.7310238 202.545183,11.3139832 201.095,11.3139832 C200.316661,11.3139832 199.501508,11.5511501 198.650857,12.0254839 C197.800205,12.4984853 197.146769,13.0820757 196.691861,13.7735905 L196.691861,28.2740813 L193.276108,28.2740813 L193.276108,8.76377279 L195.613756,8.76377279 L196.691861,11.2780084 C197.817297,9.35935484 199.657965,8.40002805 202.209918,8.40002805 C206.427676,8.40002805 208.537869,10.9982048 208.537869,16.197223 L208.537869,28.2740813 L205.122117,28.2740813 Z" id="Fill-25"></path>
                            <path d="M219.196779,11.1871388 C218.010863,11.1871388 217.041883,11.6121739 216.293784,12.462244 C215.545684,13.3123142 215.169662,14.3449229 215.169662,15.5587377 C215.169662,16.9191164 215.532536,18.044993 216.258285,18.9376999 C216.982719,19.8304067 217.963532,20.2767602 219.196779,20.2767602 C220.407675,20.2767602 221.354304,19.8423983 222.036665,18.975007 C222.720342,18.1062833 223.060865,16.9684151 223.060865,15.5587377 C223.060865,14.3449229 222.692732,13.3123142 221.956465,12.462244 C221.218883,11.6121739 220.299864,11.1871388 219.196779,11.1871388 M211.952438,33.6114025 L213.803624,30.8426788 C215.792859,32.1910659 217.626953,32.8652595 219.304589,32.8652595 C220.85075,32.8652595 222.070849,32.5934502 222.962258,32.0538289 C223.854982,31.5128752 224.302001,30.8426788 224.302001,30.040575 C224.302001,28.461683 223.17525,27.6729032 220.921747,27.6729032 C220.539151,27.6729032 219.843642,27.7701683 218.837849,27.9646985 C217.830741,28.1578962 217.045828,28.2564937 216.483109,28.2564937 C213.749719,28.2564937 212.383681,27.210561 212.383681,25.1226928 C212.383681,24.4791445 212.705797,23.895554 213.346087,23.3732539 C213.986376,22.8522861 214.781807,22.4752174 215.727121,22.2447125 C213.020025,20.9576157 211.664506,18.7218513 211.664506,15.5414165 C211.664506,13.5001823 212.366589,11.8000421 213.768125,10.4396634 C215.169662,9.08061711 216.902519,8.39976157 218.962751,8.39976157 C220.857324,8.39976157 222.336431,8.79415147 223.402703,9.58426367 L225.11058,7.5070547 L227.339102,9.63889201 L225.290702,11.2057924 C226.165019,12.3596494 226.602835,13.8652595 226.602835,15.7226227 C226.602835,17.690575 225.998044,19.3414165 224.787148,20.6778121 C223.576252,22.0142076 221.989334,22.7790042 220.023764,22.9735344 L217.20097,23.2639972 C216.86702,23.3013043 216.417371,23.430547 215.853338,23.6557223 C215.289305,23.8808976 215.007946,24.1753576 215.007946,24.5391024 C215.007946,25.0387518 215.595645,25.2865778 216.769728,25.2865778 C217.285114,25.2865778 218.088434,25.19331 219.178372,25.0041094 C220.26831,24.8162412 221.078204,24.721641 221.605423,24.721641 C223.498681,24.721641 224.976474,25.179986 226.036172,26.096676 C227.097186,27.0146985 227.627035,28.2858065 227.627035,29.9139972 C227.627035,31.7100701 226.834233,33.1610519 225.246,34.2669425 C223.657767,35.3715007 221.647496,35.924446 219.215186,35.924446 C217.967476,35.924446 216.655343,35.6992707 215.278787,35.2515849 C213.900916,34.8012342 212.791257,34.2536185 211.952438,33.6114025" id="Fill-27"></path>
                        </g>
                        <g id="Page-1" transform="translate(224.000000, -1.000000)">
                            <g id="Group-3" transform="translate(3.000000, 7.000000)">
                                <mask id="mask-2" fill="white">
                                    <use xlink:href="#path-1"></use>
                                </mask>
                                <g id="Clip-2"></g>
                                <polygon id="Fill-1" fill="#147FD7" mask="url(#mask-2)" points="-4.26 22.533 18.887 22.533 18.887 -4.028 -4.26 -4.028"></polygon>
                            </g>
                            <polygon id="Fill-4" fill="#147FD7" points="18.4021 9.0339 10.3491 4.1839 2.2971 9.0339 0.7491 6.4639 10.3491 0.6819 19.9501 6.4639"></polygon>
                        </g>
                    </g>
                </g>
            </g>
        </g>
    </g>
</svg>